<?xml version="1.0" encoding="utf-8"?>
<!-- Generator: Adobe Illustrator 17.0.0, SVG Export Plug-In . SVG Version: 6.00 Build 0)  -->
<!DOCTYPE svg PUBLIC "-//W3C//DTD SVG 1.1//EN" "http://www.w3.org/Graphics/SVG/1.1/DTD/svg11.dtd">
<svg version="1.1" id="Layer_1" xmlns="http://www.w3.org/2000/svg" xmlns:xlink="http://www.w3.org/1999/xlink" x="0px" y="0px"
	 width="283.46px" height="224px" viewBox="0 0 283.46 224" enable-background="new 0 0 283.46 224" xml:space="preserve">
<g>
	<path d="M233.391,210.313v-27.457H186.81v-8.792l44.732-64.011h14.653v62.317h14.038v10.487h-14.038v27.457H233.391z
		 M233.391,172.37v-33.471c0-5.245,0.155-10.491,0.464-15.732h-0.464c-3.083,5.86-5.551,10.177-8.328,14.807l-24.524,34.086v0.31
		H233.391z"/>
</g>
<g>
	<path d="M115.291,121.314l-2.426-46.643c-0.774-14.498-1.698-32.083-1.698-44.887h-0.31c-3.702,12.034-7.864,25.143-13.109,39.487
		l-18.355,50.437H69.213L52.247,70.199C47.311,55.391,43.3,42.123,40.367,29.784h-0.31c-0.305,12.959-1.079,30.234-2.004,45.966
		l-2.777,44.577h-12.8l7.249-103.962h17.121l17.74,50.287c4.317,12.8,7.709,24.215,10.487,35.011h0.31
		c2.777-10.487,6.479-21.902,11.106-35.011l18.509-50.287h17.121l5.839,93.691l49.471-0.003v8.947l-43.653,91.313h-14.038
		l43.452-88.999H115.291z"/>
</g>
</svg>
